Moderustic-Bold.ufo
<glyph name="hyphen" format="2">
  <advance width="390"/>
  <unicode hex="002D"/>
  <outline>
    <contour>
      <point x="50" y="251" type="line"/>
      <point x="339.505" y="251" type="line"/>
      <point x="339.505" y="307" type="line"/>
      <point x="50" y="307" type="line"/>
    </contour>
  </outline>
</glyph>
<glyph name="four" format="2">
  <advance width="665"/>
  <unicode hex="0034"/>
  <outline>
    <contour>
      <point x="8" y="151" type="line"/>
      <point x="358" y="151" type="line"/>
      <point x="358" y="0" type="line"/>
      <point x="524" y="0" type="line"/>
      <point x="524" y="151" type="line"/>
      <point x="650" y="151" type="line"/>
      <point x="650" y="281" type="line"/>
      <point x="524" y="281" type="line"/>
      <point x="524" y="700" type="line"/>
      <point x="317" y="700" type="line"/>
      <point x="8" y="237" type="line"/>
    </contour>
    <contour>
      <point x="196" y="281" type="line"/>
      <point x="358" y="521" type="line"/>
      <point x="358" y="281" type="line"/>
    </contour>
  </outline>
</glyph>
<glyph name="B" format="2">
  <advance width="634"/>
  <unicode hex="0042"/>
  <anchor x="308" y="719" name="top"/>
  <anchor x="328" y="-20" name="bottom"/>
  <outline>
    <contour>
      <point x="68" y="0" type="line" name="ab01"/>
      <point x="356" y="0" type="line" smooth="yes"/>
      <point x="518" y="0"/>
      <point x="604" y="98"/>
      <point x="604" y="206" type="curve" smooth="yes"/>
      <point x="604" y="329"/>
      <point x="494" y="372"/>
      <point x="365" y="372" type="curve" name="dv02"/>
      <point x="493" y="372"/>
      <point x="558" y="426"/>
      <point x="558" y="518" type="curve" smooth="yes"/>
      <point x="558" y="614"/>
      <point x="487" y="700"/>
      <point x="316" y="700" type="curve" smooth="yes" name="at01"/>
      <point x="68" y="700" type="line"/>
    </contour>
    <contour>
      <point x="234" y="130" type="line"/>
      <point x="234" y="570" type="line" name="sv02"/>
      <point x="288" y="570" type="line" smooth="yes"/>
      <point x="367" y="570"/>
      <point x="391" y="542"/>
      <point x="391" y="505" type="curve" smooth="yes" name="sv04"/>
      <point x="391" y="464"/>
      <point x="362" y="431"/>
      <point x="306" y="431" type="curve" smooth="yes" name="sv03"/>
      <point x="100" y="431" type="line"/>
      <point x="100" y="305" type="line"/>
      <point x="310" y="305" type="line" smooth="yes" name="dv01"/>
      <point x="397" y="305"/>
      <point x="437" y="282"/>
      <point x="437" y="219" type="curve" smooth="yes"/>
      <point x="437" y="159"/>
      <point x="401" y="130"/>
      <point x="325" y="130" type="curve" smooth="yes" name="sv01"/>
    </contour>
  </outline>
</glyph>
<glyph name="O" format="2">
  <advance width="775"/>
  <unicode hex="004F"/>
  <anchor x="388" y="719" name="top"/>
  <anchor x="388" y="-20" name="bottom"/>
  <anchor x="512" y="-1" name="ogonek"/>
  <anchor x="-14" y="500" name="topgr"/>
  <outline>
    <contour>
      <point x="388.992" y="111" type="curve" smooth="yes" name="dv02"/>
      <point x="271.605" y="111"/>
      <point x="196" y="210"/>
      <point x="196" y="353" type="curve" smooth="yes"/>
      <point x="196" y="498"/>
      <point x="265.636" y="589"/>
      <point x="385.013" y="589" type="curve" smooth="yes" name="dv03"/>
      <point x="505.384" y="589"/>
      <point x="579" y="493"/>
      <point x="579" y="346" type="curve" smooth="yes" name="dv05"/>
      <point x="579" y="204"/>
      <point x="507.374" y="111"/>
    </contour>
    <contour>
      <point x="387" y="-20" type="curve" smooth="yes" name="dv01"/>
      <point x="611" y="-20"/>
      <point x="747" y="144"/>
      <point x="747" y="350" type="curve" smooth="yes" name="dv06"/>
      <point x="747" y="557"/>
      <point x="606" y="720"/>
      <point x="388" y="720" type="curve" smooth="yes" name="dv04"/>
      <point x="170" y="720"/>
      <point x="28" y="560"/>
      <point x="28" y="350" type="curve" smooth="yes"/>
      <point x="28" y="142"/>
      <point x="168" y="-20"/>
    </contour>
  </outline>
</glyph>
<glyph name="d" format="2">
  <advance width="597"/>
  <unicode hex="0064"/>
  <anchor x="266" y="-20" name="bottom"/>
  <anchor x="259" y="750" name="top"/>
  <anchor x="591" y="750" name="topright"/>
  <outline>
    <contour>
      <point x="387" y="0" type="line" name="ab03"/>
      <point x="552" y="0" type="line"/>
      <point x="552" y="750" type="line" name="ab01"/>
      <point x="387" y="750" type="line"/>
    </contour>
    <contour>
      <point x="239" y="-20" type="curve" smooth="yes" name="dv01"/>
      <point x="348" y="-20"/>
      <point x="419" y="90"/>
      <point x="419" y="255" type="curve" smooth="yes"/>
      <point x="419" y="421"/>
      <point x="350" y="520"/>
      <point x="233" y="520" type="curve" smooth="yes" name="at01"/>
      <point x="94" y="520"/>
      <point x="20" y="411"/>
      <point x="20" y="255" type="curve" smooth="yes"/>
      <point x="20" y="99"/>
      <point x="103" y="-20"/>
    </contour>
    <contour>
      <point x="289.517" y="106" type="curve" smooth="yes" name="dv02"/>
      <point x="226.204" y="106"/>
      <point x="185" y="165"/>
      <point x="185" y="256" type="curve" smooth="yes"/>
      <point x="185" y="344"/>
      <point x="223.189" y="393"/>
      <point x="290.522" y="393" type="curve" smooth="yes" name="sv01"/>
      <point x="347.806" y="393"/>
      <point x="387" y="337"/>
      <point x="387" y="257" type="curve" smooth="yes"/>
      <point x="387" y="166"/>
      <point x="348.811" y="106"/>
    </contour>
  </outline>
</glyph>
<glyph name="f" format="2">
  <advance width="413"/>
  <unicode hex="0066"/>
  <anchor x="230" y="750" name="top"/>
  <anchor x="173" y="-20" name="bottom"/>
  <outline>
    <contour>
      <point x="89" y="0" type="line" name="ab01"/>
      <point x="254" y="0" type="line"/>
      <point x="254" y="380" type="line" name="sv01"/>
      <point x="390" y="380" type="line"/>
      <point x="390" y="500" type="line" name="sv02"/>
      <point x="254" y="500" type="line"/>
      <point x="254" y="547" type="line" smooth="yes"/>
      <point x="254" y="593"/>
      <point x="270" y="627"/>
      <point x="312" y="627" type="curve" smooth="yes" name="dv01"/>
      <point x="324" y="627"/>
      <point x="348" y="624"/>
      <point x="366" y="617" type="curve"/>
      <point x="396" y="728" type="line"/>
      <point x="337" y="746"/>
      <point x="307" y="751"/>
      <point x="273" y="751" type="curve" smooth="yes" name="dv02"/>
      <point x="158" y="751"/>
      <point x="89" y="694"/>
      <point x="89" y="588" type="curve" smooth="yes"/>
      <point x="89" y="500" type="line" name="dv04"/>
      <point x="12" y="500" type="line"/>
      <point x="12" y="380" type="line"/>
      <point x="89" y="380" type="line" name="dv03"/>
    </contour>
  </outline>
</glyph>
<glyph name="g" format="2">
  <advance width="605"/>
  <unicode hex="0067"/>
  <anchor x="288" y="520" name="top"/>
  <anchor x="279" y="-220" name="bottom"/>
  <outline>
    <contour>
      <point x="228" y="-20" type="curve" smooth="yes" name="dv01"/>
      <point x="348" y="-20"/>
      <point x="418" y="90"/>
      <point x="418" y="257" type="curve" smooth="yes"/>
      <point x="418" y="421"/>
      <point x="350" y="520"/>
      <point x="225" y="520" type="curve" smooth="yes" name="at01"/>
      <point x="94" y="520"/>
      <point x="20" y="411"/>
      <point x="20" y="259" type="curve" smooth="yes"/>
      <point x="20" y="99"/>
      <point x="103" y="-20"/>
    </contour>
    <contour>
      <point x="287.507" y="106" type="curve" smooth="yes" name="dv02"/>
      <point x="226.204" y="106"/>
      <point x="185" y="165"/>
      <point x="185" y="257" type="curve" smooth="yes"/>
      <point x="185" y="344"/>
      <point x="222.184" y="393"/>
      <point x="282.483" y="393" type="curve" smooth="yes" name="sv01"/>
      <point x="347.806" y="393"/>
      <point x="386" y="337"/>
      <point x="386" y="251" type="curve" smooth="yes"/>
      <point x="386" y="166"/>
      <point x="348.811" y="106"/>
    </contour>
    <contour>
      <point x="39" y="-127" type="line"/>
      <point x="89.098" y="-188"/>
      <point x="169.254" y="-220"/>
      <point x="268.447" y="-220" type="curve" smooth="yes" name="at01"/>
      <point x="442.787" y="-220"/>
      <point x="551" y="-121"/>
      <point x="551" y="52" type="curve" smooth="yes"/>
      <point x="551" y="500" type="line" name="av01"/>
      <point x="386" y="500" type="line"/>
      <point x="386" y="68" type="line" smooth="yes"/>
      <point x="386" y="-56"/>
      <point x="326" y="-97"/>
      <point x="250" y="-97" type="curve" smooth="yes" name="sv01"/>
      <point x="197" y="-97"/>
      <point x="151" y="-77"/>
      <point x="124" y="-42" type="curve"/>
    </contour>
  </outline>
</glyph>
<glyph name="cent" format="2">
  <advance width="563"/>
  <unicode hex="00A2"/>
  <outline>
    <contour>
      <point x="274" y="610" type="line"/>
      <point x="324" y="610" type="line"/>
      <point x="324" y="730" type="line"/>
      <point x="274" y="730" type="line"/>
    </contour>
    <contour>
      <point x="275" y="-31" type="line"/>
      <point x="323" y="-31" type="line"/>
      <point x="323" y="90" type="line"/>
      <point x="275" y="89" type="line"/>
    </contour>
    <contour>
      <point x="436" y="258" type="line"/>
      <point x="409" y="223"/>
      <point x="359" y="204"/>
      <point x="308" y="204" type="curve" smooth="yes" name="dv02"/>
      <point x="229" y="204"/>
      <point x="194" y="255"/>
      <point x="194" y="354" type="curve" smooth="yes"/>
      <point x="194" y="449"/>
      <point x="233" y="496"/>
      <point x="307" y="496" type="curve" smooth="yes" name="sv01"/>
      <point x="354" y="496"/>
      <point x="405" y="477"/>
      <point x="432" y="442" type="curve"/>
      <point x="517" y="527" type="line"/>
      <point x="467" y="588"/>
      <point x="392" y="620"/>
      <point x="293" y="620" type="curve" smooth="yes" name="at01"/>
      <point x="140" y="620"/>
      <point x="29" y="529"/>
      <point x="29" y="355" type="curve" smooth="yes"/>
      <point x="29" y="189"/>
      <point x="130" y="80"/>
      <point x="291" y="80" type="curve" smooth="yes" name="dv01"/>
      <point x="393" y="80"/>
      <point x="471" y="112"/>
      <point x="521" y="173" type="curve"/>
    </contour>
  </outline>
</glyph>
<glyph name="copyright" format="2">
  <advance width="817"/>
  <unicode hex="00A9"/>
  <outline>
    <contour>
      <point x="44" y="357" type="curve" smooth="yes"/>
      <point x="44" y="137"/>
      <point x="233" y="12"/>
      <point x="411" y="12" type="curve" smooth="yes"/>
      <point x="589" y="12"/>
      <point x="773" y="138"/>
      <point x="773" y="357" type="curve" smooth="yes"/>
      <point x="773" y="572"/>
      <point x="596" y="688"/>
      <point x="411" y="688" type="curve" smooth="yes"/>
      <point x="227" y="688"/>
      <point x="44" y="573"/>
    </contour>
    <contour>
      <point x="104" y="358" type="curve" smooth="yes"/>
      <point x="104" y="513"/>
      <point x="231" y="628"/>
      <point x="408" y="628" type="curve" smooth="yes"/>
      <point x="585" y="628"/>
      <point x="713" y="514"/>
      <point x="713" y="354" type="curve" smooth="yes"/>
      <point x="713" y="186"/>
      <point x="573" y="72"/>
      <point x="411" y="72" type="curve" smooth="yes"/>
      <point x="243" y="72"/>
      <point x="104" y="195"/>
    </contour>
    <contour>
      <point x="511.825" y="282.979" type="line"/>
      <point x="490.983" y="257.264"/>
      <point x="452.387" y="243.304"/>
      <point x="413.018" y="243.304" type="curve" smooth="yes" name="dv02"/>
      <point x="352.036" y="243.304"/>
      <point x="325.019" y="280.775"/>
      <point x="325.019" y="353.514" type="curve" smooth="yes"/>
      <point x="325.019" y="423.314"/>
      <point x="355.148" y="457.846"/>
      <point x="412.317" y="457.846" type="curve" smooth="yes" name="sv01"/>
      <point x="448.627" y="457.846"/>
      <point x="487.027" y="443.886"/>
      <point x="507.886" y="418.171" type="curve"/>
      <point x="571.338" y="480.623" type="line"/>
      <point x="535.626" y="525.442"/>
      <point x="482.058" y="548.953"/>
      <point x="411.348" y="548.953" type="curve" smooth="yes" name="at01"/>
      <point x="302.069" y="548.953"/>
      <point x="222.788" y="482.092"/>
      <point x="222.788" y="354.249" type="curve" smooth="yes"/>
      <point x="222.788" y="232.283"/>
      <point x="294.943" y="152.197"/>
      <point x="409.963" y="152.197" type="curve" smooth="yes" name="dv01"/>
      <point x="482.833" y="152.197"/>
      <point x="538.557" y="175.708"/>
      <point x="574.277" y="220.527" type="curve"/>
    </contour>
  </outline>
</glyph>
<glyph name="Lslash" format="2">
  <advance width="554"/>
  <unicode hex="0141"/>
  <outline>
    <contour>
      <point x="68" y="0" type="line" name="ab01"/>
      <point x="514" y="0" type="line"/>
      <point x="514" y="130" type="line" name="sv01"/>
      <point x="234" y="130" type="line"/>
      <point x="234" y="700" type="line" name="at01"/>
      <point x="68" y="700" type="line"/>
    </contour>
    <contour>
      <point x="0" y="231" type="line"/>
      <point x="399" y="500" type="line"/>
      <point x="399" y="549" type="line"/>
      <point x="0" y="280" type="line"/>
    </contour>
  </outline>
</glyph>
<glyph name="Schwa" format="2">
  <advance width="759"/>
  <unicode hex="018F"/>
  <anchor x="380" y="719" name="top"/>
  <anchor x="380" y="-20" name="bottom"/>
  <outline>
    <contour>
      <point x="584" y="288" type="line" name="dv05"/>
      <point x="585" y="412" type="line" name="dv06"/>
      <point x="32" y="412" type="line" name="sh04"/>
      <point x="30" y="397" name=".dv02"/>
      <point x="28" y="374"/>
      <point x="28" y="348" type="curve" smooth="yes" name="sh01"/>
      <point x="28" y="131"/>
      <point x="168" y="-20"/>
      <point x="380" y="-20" type="curve" smooth="yes" name="dv01"/>
      <point x="583" y="-20"/>
      <point x="731" y="119"/>
      <point x="731" y="353" type="curve" smooth="yes" name="sh03"/>
      <point x="731" y="581"/>
      <point x="591" y="720"/>
      <point x="370" y="720" type="curve" smooth="yes"/>
      <point x="238" y="720"/>
      <point x="145" y="670"/>
      <point x="84" y="596" type="curve"/>
      <point x="179" y="501" type="line"/>
      <point x="228" y="559" name=".sh02"/>
      <point x="293" y="589"/>
      <point x="368" y="589" type="curve" smooth="yes"/>
      <point x="485" y="589" name=".dv01"/>
      <point x="564" y="517"/>
      <point x="564" y="350" type="curve" smooth="yes"/>
      <point x="564" y="198" name=".sh01"/>
      <point x="499" y="111"/>
      <point x="386" y="111" type="curve" smooth="yes" name="dv02"/>
      <point x="288" y="111" name=".sh03"/>
      <point x="210" y="176" name=".dv03"/>
      <point x="200" y="288" type="curve" name="sh02"/>
    </contour>
  </outline>
</glyph>
<glyph name="tildecomb" format="2">
  <advance width="443"/>
  <unicode hex="0303"/>
  <anchor x="222" y="670" name="top"/>
  <anchor x="222" y="500" name="_top"/>
  <outline>
    <contour>
      <point x="136" y="579" type="line"/>
      <point x="138" y="604"/>
      <point x="146" y="615"/>
      <point x="165" y="615" type="curve" smooth="yes"/>
      <point x="201" y="615"/>
      <point x="231" y="573"/>
      <point x="292" y="573" type="curve" smooth="yes"/>
      <point x="350" y="573"/>
      <point x="394" y="611.009"/>
      <point x="394" y="686" type="curve"/>
      <point x="304" y="686" type="line"/>
      <point x="303" y="664"/>
      <point x="298" y="653"/>
      <point x="276" y="653" type="curve" smooth="yes"/>
      <point x="233" y="653"/>
      <point x="202" y="695"/>
      <point x="143" y="695" type="curve" smooth="yes"/>
      <point x="90" y="695"/>
      <point x="46" y="658"/>
      <point x="46" y="579" type="curve"/>
    </contour>
  </outline>
</glyph>
<glyph name="ringcomb" format="2">
  <advance width="270"/>
  <unicode hex="030A"/>
  <anchor x="135" y="723" name="top"/>
  <anchor x="135" y="500" name="_top"/>
  <outline>
    <contour>
      <point x="27" y="618" type="curve" smooth="yes"/>
      <point x="27" y="554"/>
      <point x="70" y="513"/>
      <point x="135" y="513" type="curve" smooth="yes"/>
      <point x="200" y="513"/>
      <point x="243" y="554"/>
      <point x="243" y="618" type="curve" smooth="yes"/>
      <point x="243" y="681"/>
      <point x="200" y="723"/>
      <point x="135" y="723" type="curve" smooth="yes"/>
      <point x="70" y="723"/>
      <point x="27" y="681"/>
    </contour>
    <contour>
      <point x="135" y="572" type="curve" smooth="yes"/>
      <point x="108" y="572"/>
      <point x="90" y="589"/>
      <point x="90" y="618" type="curve" smooth="yes"/>
      <point x="90" y="646"/>
      <point x="108" y="664"/>
      <point x="135" y="664" type="curve" smooth="yes"/>
      <point x="162" y="664"/>
      <point x="180" y="646"/>
      <point x="180" y="618" type="curve" smooth="yes"/>
      <point x="180" y="590"/>
      <point x="162" y="572"/>
    </contour>
  </outline>
</glyph>
<glyph name="hungarumlautcomb" format="2">
  <advance width="389"/>
  <unicode hex="030B"/>
  <anchor x="204" y="702" name="top"/>
  <anchor x="138" y="500" name="_top"/>
  <outline>
    <contour>
      <point x="199" y="551" type="line"/>
      <point x="275" y="551" type="line"/>
      <point x="375" y="702" type="line"/>
      <point x="259" y="702" type="line"/>
    </contour>
    <contour>
      <point x="11" y="551" type="line"/>
      <point x="87" y="551" type="line"/>
      <point x="187" y="702" type="line"/>
      <point x="71" y="702" type="line"/>
    </contour>
  </outline>
</glyph>
<glyph name="commaaccentcomb" format="2">
  <advance width="246"/>
  <unicode hex="0326"/>
  <anchor x="123" y="-248" name="bottom"/>
  <anchor x="123" y="0" name="_bottom"/>
  <outline>
    <contour>
      <point x="84" y="-277" type="line"/>
      <point x="147" y="-259.084"/>
      <point x="188" y="-199.363"/>
      <point x="188" y="-138.647" type="curve" smooth="yes"/>
      <point x="188" y="-97.837"/>
      <point x="169" y="-63"/>
      <point x="121" y="-63" type="curve" smooth="yes"/>
      <point x="84" y="-63"/>
      <point x="58" y="-83.811"/>
      <point x="58" y="-118.495" type="curve" smooth="yes"/>
      <point x="58" y="-153.18"/>
      <point x="84" y="-173"/>
      <point x="113" y="-173" type="curve" smooth="yes"/>
      <point x="124" y="-173"/>
      <point x="136" y="-170"/>
      <point x="138" y="-166" type="curve"/>
      <point x="135" y="-197"/>
      <point x="108" y="-229"/>
      <point x="66" y="-250" type="curve"/>
    </contour>
  </outline>
</glyph>
<glyph name="dieresistonos" format="2">
  <advance width="333"/>
  <unicode hex="0385"/>
  <anchor x="166" y="688" name="topgr"/>
  <anchor x="166" y="500" name="_topgr"/>
  <outline>
    <contour>
      <point x="112" y="543" type="line"/>
      <point x="186" y="543" type="line"/>
      <point x="237" y="713" type="line"/>
      <point x="143" y="713" type="line"/>
    </contour>
    <contour>
      <point x="291.166" y="553.23" type="curve" smooth="yes" name="dv01"/>
      <point x="328.231" y="553.23"/>
      <point x="348.267" y="581.279"/>
      <point x="348.267" y="612.335" type="curve" smooth="yes"/>
      <point x="348.267" y="643.39"/>
      <point x="328.231" y="670.438"/>
      <point x="291.166" y="670.438" type="curve" smooth="yes" name="dv02"/>
      <point x="252.096" y="670.438"/>
      <point x="232.061" y="639.383"/>
      <point x="232.061" y="612.335" type="curve" smooth="yes"/>
      <point x="232.061" y="585.287"/>
      <point x="252.096" y="553.23"/>
    </contour>
    <contour>
      <point x="45.838" y="553.23" type="curve" smooth="yes" name="dv01"/>
      <point x="82.904" y="553.23"/>
      <point x="102.939" y="581.279"/>
      <point x="102.939" y="612.335" type="curve" smooth="yes"/>
      <point x="102.939" y="643.39"/>
      <point x="82.904" y="670.438"/>
      <point x="45.838" y="670.438" type="curve" smooth="yes" name="dv02"/>
      <point x="6.769" y="670.438"/>
      <point x="-13.267" y="639.383"/>
      <point x="-13.267" y="612.335" type="curve" smooth="yes"/>
      <point x="-13.267" y="585.287"/>
      <point x="6.769" y="553.23"/>
    </contour>
  </outline>
</glyph>
<glyph name="anoteleia" format="2">
  <advance width="262"/>
  <unicode hex="0387"/>
  <outline>
    <contour>
      <point x="131" y="361" type="curve" smooth="yes"/>
      <point x="182" y="361"/>
      <point x="221" y="402"/>
      <point x="221" y="452" type="curve" smooth="yes"/>
      <point x="221" y="502"/>
      <point x="182" y="541"/>
      <point x="131" y="541" type="curve" smooth="yes"/>
      <point x="79" y="541"/>
      <point x="41" y="502"/>
      <point x="41" y="452" type="curve" smooth="yes"/>
      <point x="41" y="402"/>
      <point x="79" y="361"/>
    </contour>
  </outline>
</glyph>
<glyph name="beta" format="2">
  <advance width="630"/>
  <unicode hex="03B2"/>
  <anchor x="315" y="721" name="topgr"/>
  <outline>
    <contour>
      <point x="59" y="-200" type="line"/>
      <point x="224" y="-200" type="line"/>
      <point x="224" y="449" type="line" smooth="yes"/>
      <point x="224" y="555"/>
      <point x="251" y="596"/>
      <point x="317" y="596" type="curve" smooth="yes"/>
      <point x="374" y="596"/>
      <point x="404" y="568.698"/>
      <point x="404" y="513.084" type="curve" smooth="yes"/>
      <point x="404" y="448.052"/>
      <point x="374.242" y="415"/>
      <point x="315.689" y="415" type="curve" smooth="yes"/>
      <point x="253" y="415" type="line"/>
      <point x="253" y="305" type="line"/>
      <point x="333" y="305" type="line" smooth="yes"/>
      <point x="406" y="305"/>
      <point x="435" y="268"/>
      <point x="435" y="207" type="curve" smooth="yes"/>
      <point x="435" y="127"/>
      <point x="386" y="103"/>
      <point x="330" y="103" type="curve" smooth="yes"/>
      <point x="279" y="103"/>
      <point x="224" y="132"/>
      <point x="224" y="219" type="curve"/>
      <point x="192" y="90" type="line"/>
      <point x="231" y="10"/>
      <point x="307" y="-20"/>
      <point x="380.892" y="-20" type="curve" smooth="yes"/>
      <point x="506" y="-20"/>
      <point x="600" y="66.709"/>
      <point x="600" y="190.723" type="curve" smooth="yes"/>
      <point x="600" y="280.456"/>
      <point x="556" y="347"/>
      <point x="431" y="369" type="curve"/>
      <point x="528" y="388"/>
      <point x="569" y="444.488"/>
      <point x="569" y="528.725" type="curve" smooth="yes"/>
      <point x="569" y="648.638"/>
      <point x="477" y="719"/>
      <point x="322" y="719" type="curve" smooth="yes"/>
      <point x="170" y="719"/>
      <point x="59" y="655"/>
      <point x="59" y="516" type="curve" smooth="yes"/>
    </contour>
  </outline>
</glyph>
<glyph name="gamma" format="2">
  <advance width="543"/>
  <unicode hex="03B3"/>
  <anchor x="272" y="520" name="topgr"/>
  <outline>
    <contour>
      <point x="189" y="-200" type="line"/>
      <point x="354" y="-200" type="line"/>
      <point x="354" y="80" type="line"/>
      <point x="341" y="-12" type="line"/>
      <point x="538" y="500" type="line"/>
      <point x="360" y="500" type="line"/>
      <point x="267.575" y="200.668" type="line"/>
      <point x="276.471" y="200.682" type="line"/>
      <point x="183" y="500" type="line"/>
      <point x="5" y="500" type="line"/>
      <point x="202" y="-12" type="line"/>
      <point x="189" y="80" type="line"/>
    </contour>
  </outline>
</glyph>
<glyph name="theta" format="2">
  <advance width="606"/>
  <unicode hex="03B8"/>
  <anchor x="303" y="721" name="topgr"/>
  <outline>
    <contour>
      <point x="305" y="-20" type="curve" smooth="yes"/>
      <point x="484" y="-20"/>
      <point x="586" y="114"/>
      <point x="586" y="348" type="curve" smooth="yes"/>
      <point x="586" y="581"/>
      <point x="481" y="720"/>
      <point x="305" y="720" type="curve" smooth="yes"/>
      <point x="127" y="720"/>
      <point x="20" y="580"/>
      <point x="20" y="348" type="curve" smooth="yes"/>
      <point x="20" y="115"/>
      <point x="124" y="-20"/>
    </contour>
    <contour>
      <point x="305" y="103" type="curve" smooth="yes"/>
      <point x="226" y="103"/>
      <point x="186" y="184"/>
      <point x="186" y="347" type="curve" smooth="yes"/>
      <point x="186" y="517"/>
      <point x="224" y="597"/>
      <point x="305" y="597" type="curve" smooth="yes"/>
      <point x="385" y="597"/>
      <point x="421" y="518"/>
      <point x="421" y="347" type="curve" smooth="yes"/>
      <point x="421" y="179"/>
      <point x="385" y="103"/>
    </contour>
    <contour>
      <point x="172" y="294" type="line"/>
      <point x="435" y="294" type="line"/>
      <point x="435" y="410" type="line"/>
      <point x="172" y="410" type="line"/>
    </contour>
  </outline>
</glyph>
<glyph name="Becyr" format="2">
  <advance width="613"/>
  <unicode hex="0411"/>
  <outline>
    <contour>
      <point x="108" y="569" type="line"/>
      <point x="535" y="569" type="line"/>
      <point x="535" y="700" type="line"/>
      <point x="75" y="700" type="line"/>
      <point x="75" y="694" type="line"/>
    </contour>
    <contour>
      <point x="57" y="0" type="line"/>
      <point x="333" y="0" type="line" smooth="yes"/>
      <point x="494" y="0"/>
      <point x="584" y="95.118"/>
      <point x="584" y="225.011" type="curve" smooth="yes"/>
      <point x="584" y="355.927"/>
      <point x="493" y="449"/>
      <point x="332" y="449" type="curve" smooth="yes"/>
      <point x="223" y="449" type="line"/>
      <point x="223" y="700" type="line"/>
      <point x="57" y="700" type="line"/>
    </contour>
    <contour>
      <point x="223" y="130" type="line"/>
      <point x="223" y="318" type="line"/>
      <point x="293" y="318" type="line" smooth="yes"/>
      <point x="376" y="318"/>
      <point x="418" y="298.989"/>
      <point x="418" y="229.281" type="curve" smooth="yes"/>
      <point x="418" y="158.517"/>
      <point x="376" y="130"/>
      <point x="293" y="130" type="curve" smooth="yes"/>
    </contour>
  </outline>
</glyph>
<glyph name="Kacyr" format="2">
  <advance width="640"/>
  <unicode hex="041A"/>
  <anchor x="320" y="719" name="top"/>
  <anchor x="320" y="-20" name="bottom"/>
  <outline>
    <contour>
      <point x="58" y="0" type="line" name="av01"/>
      <point x="223" y="0" type="line"/>
      <point x="223" y="700" type="line" name="av02"/>
      <point x="58" y="700" type="line"/>
    </contour>
    <contour>
      <point x="184" y="310" type="line"/>
      <point x="388" y="310" type="line" smooth="yes"/>
      <point x="482" y="310"/>
      <point x="549" y="356"/>
      <point x="563" y="470" type="curve"/>
      <point x="585" y="700" type="line"/>
      <point x="420" y="700" type="line"/>
      <point x="406" y="551" type="line" smooth="yes"/>
      <point x="398" y="466"/>
      <point x="378" y="440"/>
      <point x="320" y="440" type="curve" smooth="yes"/>
      <point x="184" y="440" type="line"/>
    </contour>
    <contour>
      <point x="455" y="0" type="line"/>
      <point x="629" y="0" type="line"/>
      <point x="503" y="346" type="line"/>
      <point x="335" y="329" type="line"/>
    </contour>
  </outline>
</glyph>
<glyph name="Yucyr" format="2">
  <advance width="1090"/>
  <unicode hex="042E"/>
  <anchor x="545" y="719" name="top"/>
  <outline>
    <contour>
      <point x="223" y="306" type="line"/>
      <point x="363" y="306" type="line"/>
      <point x="363" y="436" type="line"/>
      <point x="223" y="436" type="line"/>
    </contour>
    <contour>
      <point x="693.992" y="111" type="curve" smooth="yes" name="dv02"/>
      <point x="576.605" y="111"/>
      <point x="501" y="210"/>
      <point x="501" y="353" type="curve" smooth="yes"/>
      <point x="501" y="498"/>
      <point x="570.636" y="589"/>
      <point x="690.013" y="589" type="curve" smooth="yes" name="dv03"/>
      <point x="810.384" y="589"/>
      <point x="884" y="493"/>
      <point x="884" y="346" type="curve" smooth="yes" name="dv05"/>
      <point x="884" y="204"/>
      <point x="812.374" y="111"/>
    </contour>
    <contour>
      <point x="692" y="-20" type="curve" smooth="yes" name="dv01"/>
      <point x="916" y="-20"/>
      <point x="1052" y="144"/>
      <point x="1052" y="350" type="curve" smooth="yes" name="dv06"/>
      <point x="1052" y="557"/>
      <point x="911" y="720"/>
      <point x="693" y="720" type="curve" smooth="yes" name="dv04"/>
      <point x="475" y="720"/>
      <point x="333" y="560"/>
      <point x="333" y="350" type="curve" smooth="yes"/>
      <point x="333" y="142"/>
      <point x="473" y="-20"/>
    </contour>
    <contour>
      <point x="67" y="0" type="line"/>
      <point x="233" y="0" type="line"/>
      <point x="233" y="700" type="line"/>
      <point x="67" y="700" type="line"/>
    </contour>
  </outline>
</glyph>
<glyph name="Yacyr" format="2">
  <advance width="648"/>
  <unicode hex="042F"/>
  <anchor x="324" y="719" name="top"/>
  <anchor x="324" y="-20" name="bottom"/>
  <outline>
    <contour>
      <point x="424.5" y="0" type="line"/>
      <point x="589.5" y="0" type="line"/>
      <point x="589.5" y="700" type="line"/>
      <point x="302.513" y="700" type="line" smooth="yes"/>
      <point x="135.445" y="700"/>
      <point x="35" y="615"/>
      <point x="35" y="476" type="curve" smooth="yes"/>
      <point x="35" y="334"/>
      <point x="139.806" y="244"/>
      <point x="303.179" y="244" type="curve" smooth="yes"/>
      <point x="558" y="244" type="line"/>
      <point x="558" y="374" type="line"/>
      <point x="333.988" y="374" type="line" smooth="yes"/>
      <point x="233.497" y="374"/>
      <point x="200" y="407"/>
      <point x="200" y="472" type="curve" smooth="yes"/>
      <point x="200" y="537"/>
      <point x="234.538" y="570"/>
      <point x="338.154" y="570" type="curve" smooth="yes"/>
      <point x="424.5" y="570" type="line"/>
    </contour>
    <contour>
      <point x="31" y="0" type="line"/>
      <point x="209" y="0" type="line"/>
      <point x="372" y="281" type="line"/>
      <point x="221" y="333" type="line"/>
    </contour>
  </outline>
</glyph>
<glyph name="zhecyr" format="2">
  <advance width="800"/>
  <unicode hex="0436"/>
  <anchor x="398" y="-20" name="bottom"/>
  <anchor x="400" y="520" name="top"/>
  <outline>
    <contour>
      <point x="48" y="500" type="line" name="av02"/>
      <point x="65" y="337" type="line"/>
      <point x="70.67" y="294.2"/>
      <point x="87.78" y="260.45"/>
      <point x="113.98" y="237.8" type="curve"/>
      <point x="10" y="0" type="line"/>
      <point x="180" y="0" type="line" name="ab02"/>
      <point x="268.98" y="205" type="line"/>
      <point x="317" y="205" type="line" name="dv01"/>
      <point x="317" y="0" type="line" name="ab01"/>
      <point x="482" y="0" type="line"/>
      <point x="482" y="205" type="line" name="dv01"/>
      <point x="531.02" y="205" type="line"/>
      <point x="620" y="0" type="line" name="ab02"/>
      <point x="790" y="0" type="line"/>
      <point x="686.02" y="237.8" type="line"/>
      <point x="712.22" y="260.45"/>
      <point x="729.33" y="294.2"/>
      <point x="735" y="337" type="curve"/>
      <point x="752" y="500" type="line" name="av02"/>
      <point x="594" y="500" type="line"/>
      <point x="583" y="393.78" type="line" smooth="yes"/>
      <point x="577" y="342.19"/>
      <point x="563" y="325"/>
      <point x="508" y="325" type="curve" smooth="yes"/>
      <point x="482" y="325" type="line" name="dv02"/>
      <point x="482" y="500" type="line"/>
      <point x="317" y="500" type="line" name="av01"/>
      <point x="317" y="325" type="line" name="dv02"/>
      <point x="291" y="325" type="line" smooth="yes"/>
      <point x="237" y="325"/>
      <point x="223" y="342.19"/>
      <point x="217" y="393.78" type="curve" smooth="yes"/>
      <point x="206" y="500" type="line"/>
    </contour>
  </outline>
</glyph>
<glyph name="shacyr" format="2">
  <advance width="859"/>
  <unicode hex="0448"/>
  <outline>
    <contour>
      <point x="43" y="0" type="line"/>
      <point x="816" y="0" type="line"/>
      <point x="816" y="500" type="line"/>
      <point x="651" y="500" type="line"/>
      <point x="651" y="130" type="line"/>
      <point x="512" y="130" type="line"/>
      <point x="512" y="500" type="line"/>
      <point x="347" y="500" type="line"/>
      <point x="347" y="130" type="line"/>
      <point x="208" y="130" type="line"/>
      <point x="208" y="500" type="line"/>
      <point x="43" y="500" type="line"/>
    </contour>
  </outline>
</glyph>
<glyph name="shchacyr" format="2">
  <advance width="944"/>
  <unicode hex="0449"/>
  <outline>
    <contour>
      <point x="43" y="0" type="line"/>
      <point x="764" y="0" type="line" smooth="yes"/>
      <point x="832" y="0"/>
      <point x="818" y="-102"/>
      <point x="818" y="-140" type="curve"/>
      <point x="935" y="-140" type="line"/>
      <point x="935" y="61.226"/>
      <point x="914.175" y="130"/>
      <point x="816" y="130" type="curve"/>
      <point x="816" y="500" type="line"/>
      <point x="651" y="500" type="line"/>
      <point x="651" y="130" type="line"/>
      <point x="512" y="130" type="line"/>
      <point x="512" y="500" type="line"/>
      <point x="347" y="500" type="line"/>
      <point x="347" y="130" type="line"/>
      <point x="208" y="130" type="line"/>
      <point x="208" y="500" type="line"/>
      <point x="43" y="500" type="line"/>
    </contour>
  </outline>
</glyph>
<glyph name="ereversedcyr" format="2">
  <advance width="563"/>
  <unicode hex="044D"/>
  <anchor x="301" y="-20" name="bottom"/>
  <anchor x="281" y="520" name="top"/>
  <outline>
    <contour>
      <point x="422" y="200" type="line"/>
      <point x="422" y="304" type="line"/>
      <point x="148" y="304" type="line"/>
      <point x="148" y="200" type="line"/>
    </contour>
    <contour>
      <point x="29" y="73" type="line"/>
      <point x="79" y="12"/>
      <point x="157" y="-20"/>
      <point x="259" y="-20" type="curve" smooth="yes" name="dv01"/>
      <point x="420" y="-20"/>
      <point x="521" y="89"/>
      <point x="521" y="255" type="curve" smooth="yes"/>
      <point x="521" y="429"/>
      <point x="410" y="520"/>
      <point x="257" y="520" type="curve" smooth="yes" name="at01"/>
      <point x="158" y="520"/>
      <point x="83" y="488"/>
      <point x="33" y="427" type="curve"/>
      <point x="118" y="342" type="line"/>
      <point x="145" y="377"/>
      <point x="196" y="396"/>
      <point x="243" y="396" type="curve" smooth="yes" name="sv01"/>
      <point x="317" y="396"/>
      <point x="356" y="349"/>
      <point x="356" y="254" type="curve" smooth="yes"/>
      <point x="356" y="155"/>
      <point x="321" y="104"/>
      <point x="242" y="104" type="curve" smooth="yes" name="dv02"/>
      <point x="191" y="104"/>
      <point x="141" y="123"/>
      <point x="114" y="158" type="curve"/>
    </contour>
  </outline>
</glyph>
<glyph name="ljecyr" format="2">
  <advance width="810"/>
  <unicode hex="0459"/>
  <outline>
    <contour>
      <point x="5" y="-9" type="line"/>
      <point x="26" y="-16"/>
      <point x="46" y="-20"/>
      <point x="72" y="-20" type="curve" smooth="yes"/>
      <point x="186.393" y="-20"/>
      <point x="247.377" y="26.656"/>
      <point x="268.421" y="201.737" type="curve" smooth="yes"/>
      <point x="274.235" y="250.112"/>
      <point x="277" y="308.291"/>
      <point x="277" y="378" type="curve"/>
      <point x="349" y="378" type="line"/>
      <point x="349" y="0" type="line"/>
      <point x="607" y="0" type="line" smooth="yes"/>
      <point x="727" y="0"/>
      <point x="790" y="56.404"/>
      <point x="790" y="167.088" type="curve" smooth="yes"/>
      <point x="790" y="276.72"/>
      <point x="728" y="331"/>
      <point x="606" y="331" type="curve" smooth="yes"/>
      <point x="514" y="331" type="line"/>
      <point x="514" y="500" type="line"/>
      <point x="113" y="500" type="line"/>
      <point x="113" y="391.091"/>
      <point x="111.957" y="310.33"/>
      <point x="108.611" y="251.171" type="curve" smooth="yes"/>
      <point x="102.125" y="136.507"/>
      <point x="86.983" y="103"/>
      <point x="54" y="103" type="curve" smooth="yes"/>
      <point x="50" y="103"/>
      <point x="41" y="104"/>
      <point x="30" y="106" type="curve"/>
    </contour>
    <contour>
      <point x="514" y="122" type="line"/>
      <point x="514" y="211" type="line"/>
      <point x="575.045" y="211" type="line" smooth="yes"/>
      <point x="613.198" y="211"/>
      <point x="635" y="193.72"/>
      <point x="635" y="167.159" type="curve" smooth="yes"/>
      <point x="635" y="139.268"/>
      <point x="612.108" y="122"/>
      <point x="571.775" y="122" type="curve" smooth="yes"/>
    </contour>
  </outline>
</glyph>
<glyph name="dagger" format="2">
  <advance width="701"/>
  <unicode hex="2020"/>
  <outline>
    <contour>
      <point x="308" y="-104" type="line"/>
      <point x="396" y="-104" type="line"/>
      <point x="425" y="385" type="line"/>
      <point x="650" y="372" type="line"/>
      <point x="650" y="502" type="line"/>
      <point x="427" y="489" type="line"/>
      <point x="432" y="696" type="line"/>
      <point x="273" y="696" type="line"/>
      <point x="277" y="488" type="line"/>
      <point x="50" y="502" type="line"/>
      <point x="50" y="372" type="line"/>
      <point x="279" y="385" type="line"/>
    </contour>
  </outline>
</glyph>
<glyph name="four.superior" format="2">
  <advance width="460"/>
  <unicode hex="2074"/>
  <outline>
    <contour>
      <point x="5" y="448" type="line"/>
      <point x="253" y="448" type="line"/>
      <point x="253" y="344" type="line"/>
      <point x="368" y="344" type="line"/>
      <point x="368" y="448" type="line"/>
      <point x="456" y="448" type="line"/>
      <point x="456" y="538" type="line"/>
      <point x="368" y="538" type="line"/>
      <point x="368" y="830" type="line"/>
      <point x="215" y="830" type="line"/>
      <point x="5" y="510" type="line"/>
    </contour>
    <contour>
      <point x="144" y="538" type="line"/>
      <point x="253" y="706" type="line"/>
      <point x="253" y="538" type="line"/>
    </contour>
  </outline>
</glyph>
<glyph name="austral" format="2">
  <advance width="718"/>
  <unicode hex="20B3"/>
  <outline>
    <contour>
      <point x="13" y="129" type="line"/>
      <point x="705" y="129" type="line"/>
      <point x="705" y="200" type="line"/>
      <point x="13" y="200" type="line"/>
    </contour>
    <contour>
      <point x="13" y="268" type="line"/>
      <point x="705" y="268" type="line"/>
      <point x="705" y="339" type="line"/>
      <point x="13" y="339" type="line"/>
    </contour>
    <contour>
      <point x="393.5" y="700" type="line"/>
      <point x="265.5" y="700" type="line"/>
      <point x="38.5" y="0" type="line"/>
      <point x="202.5" y="0" type="line"/>
    </contour>
    <contour>
      <point x="452.5" y="700" type="line"/>
      <point x="324.5" y="700" type="line"/>
      <point x="515.5" y="0" type="line"/>
      <point x="679.5" y="0" type="line"/>
    </contour>
  </outline>
</glyph>
<glyph name="Eng.ss10" format="2">
  <advance width="732"/>
  <anchor x="366" y="719" name="top"/>
  <anchor x="357" y="-203" name="bottom"/>
  <outline>
    <contour>
      <point x="57.5" y="0" type="line"/>
      <point x="222.5" y="0" type="line" name="ab01"/>
      <point x="222.5" y="439" type="line" name="iv01"/>
      <point x="519" y="0" type="line" name="ab02"/>
      <point x="675.125" y="119.9" type="line"/>
      <point x="674.625" y="700" type="line" name="at01"/>
      <point x="509.5" y="700" type="line"/>
      <point x="509.875" y="261" type="line" name="iv02"/>
      <point x="213.629" y="700" type="line" name="at02"/>
      <point x="57.5" y="700" type="line"/>
    </contour>
    <contour>
      <point x="219.25" y="-93" type="line"/>
      <point x="274.139" y="-172"/>
      <point x="352.183" y="-230"/>
      <point x="454.729" y="-230" type="curve" smooth="yes"/>
      <point x="591.76" y="-230"/>
      <point x="675.25" y="-153"/>
      <point x="675.25" y="15" type="curve" smooth="yes"/>
      <point x="675.25" y="490" type="line"/>
      <point x="510.125" y="490" type="line"/>
      <point x="510.125" y="29" type="line" smooth="yes"/>
      <point x="510.125" y="-66"/>
      <point x="491.275" y="-99"/>
      <point x="435.543" y="-99" type="curve" smooth="yes"/>
      <point x="371.615" y="-99"/>
      <point x="331.456" y="-42"/>
      <point x="264.25" y="65" type="curve"/>
    </contour>
  </outline>
</glyph>
<glyph name="J.ss07" format="2">
  <advance width="380"/>
  <anchor x="244" y="719" name="top"/>
  <anchor x="154" y="-89" name="bottom"/>
  <outline>
    <contour>
      <point x="10" y="-144" type="line"/>
      <point x="244" y="-144"/>
      <point x="327" y="-67"/>
      <point x="327" y="148" type="curve"/>
      <point x="326.5" y="700" type="line"/>
      <point x="161.5" y="700" type="line"/>
      <point x="161.5" y="142" type="line" smooth="yes"/>
      <point x="161.5" y="16"/>
      <point x="115" y="-14"/>
      <point x="10" y="-14" type="curve"/>
    </contour>
  </outline>
</glyph>
<glyph name="Q.ss06" format="2">
  <advance width="775"/>
  <anchor x="388" y="719" name="top"/>
  <anchor x="388" y="-20" name="bottom"/>
  <anchor x="512" y="-1" name="ogonek"/>
  <outline>
    <contour>
      <point x="388.992" y="111" type="curve" smooth="yes" name="dv02"/>
      <point x="271.605" y="111"/>
      <point x="196" y="210"/>
      <point x="196" y="353" type="curve" smooth="yes"/>
      <point x="196" y="498"/>
      <point x="265.636" y="589"/>
      <point x="385.013" y="589" type="curve" smooth="yes" name="dv03"/>
      <point x="505.384" y="589"/>
      <point x="579" y="493"/>
      <point x="579" y="346" type="curve" smooth="yes" name="dv05"/>
      <point x="579" y="204"/>
      <point x="507.374" y="111"/>
    </contour>
    <contour>
      <point x="387" y="-20" type="curve" smooth="yes" name="dv01"/>
      <point x="611" y="-20"/>
      <point x="747" y="144"/>
      <point x="747" y="350" type="curve" smooth="yes" name="dv06"/>
      <point x="747" y="557"/>
      <point x="606" y="720"/>
      <point x="388" y="720" type="curve" smooth="yes" name="dv04"/>
      <point x="170" y="720"/>
      <point x="28" y="560"/>
      <point x="28" y="350" type="curve" smooth="yes"/>
      <point x="28" y="142"/>
      <point x="168" y="-20"/>
    </contour>
    <contour>
      <point x="296" y="115" type="line"/>
      <point x="314" y="157"/>
      <point x="341" y="172"/>
      <point x="363.677" y="172" type="curve" smooth="yes"/>
      <point x="400.262" y="172"/>
      <point x="416.865" y="127.419"/>
      <point x="437.716" y="71.433" type="curve" smooth="yes"/>
      <point x="472.903" y="-23.044"/>
      <point x="520.185" y="-150"/>
      <point x="696" y="-150" type="curve"/>
      <point x="696" y="-20" type="line"/>
      <point x="616.93" y="-20"/>
      <point x="595.982" y="35.064"/>
      <point x="574.411" y="91.77" type="curve" smooth="yes"/>
      <point x="551.513" y="151.96"/>
      <point x="527.913" y="214"/>
      <point x="433.35" y="214" type="curve" smooth="yes"/>
      <point x="342" y="214"/>
      <point x="310" y="166"/>
      <point x="289" y="119" type="curve"/>
    </contour>
  </outline>
</glyph>
<glyph name="a.ss09" format="2">
  <advance width="541"/>
  <anchor x="271" y="520" name="top"/>
  <anchor x="266" y="-20" name="bottom"/>
  <anchor x="493" y="-3" name="ogonek"/>
  <outline>
    <contour>
      <point x="337" y="160.708" type="curve"/>
      <point x="330.1" y="113.888"/>
      <point x="291.899" y="96"/>
      <point x="251.549" y="96" type="curve" smooth="yes"/>
      <point x="208.566" y="96"/>
      <point x="186" y="115.273"/>
      <point x="186" y="149" type="curve" smooth="yes"/>
      <point x="186" y="183.932"/>
      <point x="210.83" y="202"/>
      <point x="251.852" y="202" type="curve" smooth="yes"/>
      <point x="289.572" y="202"/>
      <point x="321.71" y="186.172"/>
    </contour>
    <contour>
      <point x="502" y="0" type="line"/>
      <point x="502" y="352" type="line" smooth="yes"/>
      <point x="502" y="444"/>
      <point x="426.384" y="520"/>
      <point x="278.218" y="520" type="curve" smooth="yes"/>
      <point x="147.424" y="520"/>
      <point x="48.306" y="460"/>
      <point x="34" y="341" type="curve"/>
      <point x="196" y="341" type="line"/>
      <point x="200.305" y="377"/>
      <point x="231.519" y="400"/>
      <point x="274.573" y="400" type="curve" smooth="yes"/>
      <point x="313.321" y="400"/>
      <point x="337" y="382.91"/>
      <point x="337" y="333.66" type="curve" smooth="yes"/>
      <point x="337" y="236.53" type="line"/>
      <point x="311.12" y="284.72"/>
      <point x="261.485" y="312"/>
      <point x="197.083" y="312" type="curve" smooth="yes"/>
      <point x="93.526" y="312"/>
      <point x="20" y="243"/>
      <point x="20" y="146" type="curve" smooth="yes"/>
      <point x="20" y="49"/>
      <point x="93.524" y="-20"/>
      <point x="193.972" y="-20" type="curve" smooth="yes"/>
      <point x="260.879" y="-20"/>
      <point x="311.31" y="10.54"/>
      <point x="337" y="64.52" type="curve"/>
      <point x="337" y="0" type="line"/>
    </contour>
  </outline>
</glyph>
<glyph name="austral.osf" format="2">
  <advance width="718"/>
  <outline>
    <contour>
      <point x="18" y="105" type="line"/>
      <point x="701" y="105" type="line"/>
      <point x="701" y="163" type="line"/>
      <point x="18" y="163" type="line"/>
    </contour>
    <contour>
      <point x="18" y="214" type="line"/>
      <point x="701" y="214" type="line"/>
      <point x="701" y="272" type="line"/>
      <point x="18" y="272" type="line"/>
    </contour>
    <contour>
      <point x="79" y="0" type="line"/>
      <point x="245" y="0" type="line"/>
      <point x="359" y="425" type="line"/>
      <point x="473" y="0" type="line"/>
      <point x="639" y="0" type="line"/>
      <point x="467" y="540" type="line"/>
      <point x="261" y="540" type="line"/>
    </contour>
  </outline>
</glyph>
<glyph name="bracketleft.case" format="2">
  <advance width="420"/>
  <outline>
    <contour>
      <point x="72" y="-157" type="line"/>
      <point x="387" y="-157" type="line"/>
      <point x="387" y="-57" type="line"/>
      <point x="222" y="-57" type="line"/>
      <point x="222" y="738" type="line"/>
      <point x="387" y="738" type="line"/>
      <point x="387" y="838" type="line"/>
      <point x="72" y="838" type="line"/>
    </contour>
  </outline>
</glyph>
<glyph name="ccedilla.ss09" format="2">
  <advance width="573"/>
  <anchor x="297" y="520" name="top"/>
  <anchor x="297" y="-218" name="bottom"/>
  <outline>
    <contour>
      <point x="386" y="167" type="line"/>
      <point x="383.03" y="132"/>
      <point x="352.8" y="100"/>
      <point x="300.142" y="100" type="curve" smooth="yes"/>
      <point x="227.981" y="100"/>
      <point x="188" y="155.743"/>
      <point x="188" y="247.973" type="curve" smooth="yes"/>
      <point x="188" y="338.176"/>
      <point x="227.982" y="400"/>
      <point x="299.169" y="400" type="curve" smooth="yes"/>
      <point x="352.803" y="400"/>
      <point x="382.059" y="367.957"/>
      <point x="388" y="333" type="curve"/>
      <point x="550" y="333" type="line"/>
      <point x="532.101" y="451.73"/>
      <point x="433.247" y="520"/>
      <point x="294.85" y="520" type="curve" smooth="yes"/>
      <point x="124.82" y="520"/>
      <point x="23" y="401"/>
      <point x="23" y="255" type="curve" smooth="yes"/>
      <point x="23" y="100"/>
      <point x="124.825" y="-20"/>
      <point x="293.874" y="-20" type="curve" smooth="yes"/>
      <point x="432.277" y="-20"/>
      <point x="538.056" y="51"/>
      <point x="548" y="167" type="curve"/>
    </contour>
    <contour>
      <point x="170" y="-205" type="line"/>
      <point x="192" y="-211"/>
      <point x="225" y="-218"/>
      <point x="272" y="-218" type="curve" smooth="yes"/>
      <point x="369" y="-218"/>
      <point x="421" y="-192"/>
      <point x="421" y="-133" type="curve" smooth="yes"/>
      <point x="421" y="-87"/>
      <point x="390" y="-64"/>
      <point x="320" y="-64" type="curve"/>
      <point x="367.224" y="19" type="line"/>
      <point x="274.224" y="19" type="line"/>
      <point x="209" y="-104" type="line"/>
      <point x="224" y="-102"/>
      <point x="242" y="-100"/>
      <point x="256" y="-100" type="curve" smooth="yes"/>
      <point x="289" y="-100"/>
      <point x="308" y="-111"/>
      <point x="308" y="-134" type="curve" smooth="yes"/>
      <point x="308" y="-155"/>
      <point x="292" y="-168"/>
      <point x="263" y="-168" type="curve" smooth="yes"/>
      <point x="245" y="-168"/>
      <point x="210" y="-163"/>
      <point x="190" y="-157" type="curve"/>
    </contour>
  </outline>
</glyph>
<glyph name="cent.ss12" format="2">
  <advance width="570"/>
  <outline>
    <contour>
      <point x="286" y="610" type="line"/>
      <point x="336" y="610" type="line"/>
      <point x="336" y="730" type="line"/>
      <point x="286" y="730" type="line"/>
    </contour>
    <contour>
      <point x="287" y="-31" type="line"/>
      <point x="335" y="-31" type="line"/>
      <point x="335" y="90" type="line"/>
      <point x="287" y="89" type="line"/>
    </contour>
    <contour>
      <point x="521" y="291" type="line"/>
      <point x="468" y="232"/>
      <point x="406" y="205"/>
      <point x="345" y="205" type="curve" smooth="yes"/>
      <point x="280" y="205"/>
      <point x="204" y="259"/>
      <point x="204" y="355" type="curve" smooth="yes"/>
      <point x="204" y="454"/>
      <point x="279" y="498"/>
      <point x="344" y="498" type="curve" smooth="yes"/>
      <point x="403" y="498"/>
      <point x="455" y="476"/>
      <point x="522" y="423" type="curve"/>
      <point x="531" y="526" type="line"/>
      <point x="480" y="587"/>
      <point x="402" y="621"/>
      <point x="315" y="621" type="curve" smooth="yes"/>
      <point x="135" y="621"/>
      <point x="39" y="502"/>
      <point x="39" y="356" type="curve" smooth="yes"/>
      <point x="39" y="201"/>
      <point x="135" y="81"/>
      <point x="314" y="81" type="curve" smooth="yes"/>
      <point x="411" y="81"/>
      <point x="481" y="130"/>
      <point x="530" y="189" type="curve"/>
    </contour>
  </outline>
</glyph>
<glyph name="epsilon.ss10" format="2">
  <advance width="480"/>
  <anchor x="240" y="519" name="topgr"/>
  <outline>
    <contour>
      <point x="365" y="205" type="curve"/>
      <point x="365" y="311" type="line"/>
      <point x="225" y="311"/>
      <point x="208" y="333"/>
      <point x="208" y="361" type="curve" smooth="yes"/>
      <point x="208" y="387"/>
      <point x="232.611" y="400"/>
      <point x="272.605" y="400" type="curve" smooth="yes"/>
      <point x="321.828" y="400"/>
      <point x="369" y="381"/>
      <point x="419" y="301" type="curve"/>
      <point x="456" y="430" type="line"/>
      <point x="416" y="485"/>
      <point x="336.148" y="520"/>
      <point x="237.092" y="520" type="curve" smooth="yes"/>
      <point x="127.927" y="520"/>
      <point x="41" y="488"/>
      <point x="41" y="394" type="curve" smooth="yes"/>
      <point x="41" y="320"/>
      <point x="94" y="276.8"/>
      <point x="228" y="260" type="curve"/>
      <point x="70" y="244.286"/>
      <point x="23" y="215"/>
      <point x="23" y="128" type="curve" smooth="yes"/>
      <point x="23" y="23"/>
      <point x="109.884" y="-20"/>
      <point x="239.201" y="-20" type="curve" smooth="yes"/>
      <point x="336.188" y="-20"/>
      <point x="416" y="15"/>
      <point x="456" y="70" type="curve"/>
      <point x="419" y="199" type="line"/>
      <point x="369" y="119"/>
      <point x="321.955" y="100"/>
      <point x="266.727" y="100" type="curve" smooth="yes"/>
      <point x="218.659" y="100"/>
      <point x="189" y="114"/>
      <point x="189" y="147" type="curve" smooth="yes"/>
      <point x="189" y="192"/>
      <point x="231" y="205"/>
    </contour>
  </outline>
</glyph>
<glyph name="f.ss11" format="2">
  <advance width="413"/>
  <anchor x="240" y="750" name="top"/>
  <anchor x="173" y="-20" name="bottom"/>
  <outline>
    <contour>
      <point x="89" y="0" type="line"/>
      <point x="254" y="0" type="line"/>
      <point x="254" y="380" type="line"/>
      <point x="393" y="380" type="line"/>
      <point x="393" y="500" type="line"/>
      <point x="254" y="500" type="line"/>
      <point x="254" y="517" type="line" smooth="yes"/>
      <point x="254" y="558"/>
      <point x="260" y="596"/>
      <point x="309" y="596" type="curve" smooth="yes"/>
      <point x="324" y="596"/>
      <point x="355" y="592"/>
      <point x="396" y="585" type="curve"/>
      <point x="396" y="707" type="line"/>
      <point x="349" y="716"/>
      <point x="315" y="720"/>
      <point x="267" y="720" type="curve" smooth="yes"/>
      <point x="164" y="720"/>
      <point x="89" y="673"/>
      <point x="89" y="577" type="curve" smooth="yes"/>
      <point x="89" y="500" type="line"/>
      <point x="12" y="500" type="line"/>
      <point x="12" y="380" type="line"/>
      <point x="89" y="380" type="line"/>
    </contour>
  </outline>
</glyph>
<glyph name="fi.ss11" format="2">
  <advance width="753"/>
  <outline>
    <contour>
      <point x="89" y="0" type="line"/>
      <point x="254" y="0" type="line"/>
      <point x="254" y="380" type="line"/>
      <point x="393" y="380" type="line"/>
      <point x="393" y="500" type="line"/>
      <point x="254" y="500" type="line"/>
      <point x="254" y="517" type="line" smooth="yes"/>
      <point x="254" y="558"/>
      <point x="260" y="596"/>
      <point x="309" y="596" type="curve" smooth="yes"/>
      <point x="324" y="596"/>
      <point x="355" y="592"/>
      <point x="396" y="585" type="curve"/>
      <point x="396" y="707" type="line"/>
      <point x="349" y="716"/>
      <point x="315" y="720"/>
      <point x="267" y="720" type="curve" smooth="yes"/>
      <point x="164" y="720"/>
      <point x="89" y="673"/>
      <point x="89" y="577" type="curve" smooth="yes"/>
      <point x="89" y="500" type="line"/>
      <point x="12" y="500" type="line"/>
      <point x="12" y="380" type="line"/>
      <point x="89" y="380" type="line"/>
    </contour>
    <contour>
      <point x="485" y="0" type="line" name="ab01"/>
      <point x="650" y="0" type="line"/>
      <point x="650" y="500" type="line"/>
      <point x="485" y="500" type="line" name="av01"/>
    </contour>
    <contour>
      <point x="399" y="380" type="line"/>
      <point x="736" y="380" type="line"/>
      <point x="736" y="500" type="line"/>
      <point x="399" y="500" type="line"/>
    </contour>
    <contour>
      <point x="399" y="0" type="line"/>
      <point x="736" y="0" type="line"/>
      <point x="736" y="120" type="line"/>
      <point x="399" y="120" type="line"/>
    </contour>
    <contour>
      <point x="482.769" y="629.957" type="curve" smooth="yes"/>
      <point x="482.769" y="592.618"/>
      <point x="512.449" y="547.62"/>
      <point x="568.936" y="547.62" type="curve" smooth="yes" name="dv01"/>
      <point x="623.509" y="547.62"/>
      <point x="652.231" y="588.789"/>
      <point x="652.231" y="630.915" type="curve" smooth="yes"/>
      <point x="652.231" y="672.084"/>
      <point x="623.509" y="710.38"/>
      <point x="569.894" y="710.38" type="curve" smooth="yes" name="dv02"/>
      <point x="512.449" y="710.38"/>
      <point x="482.769" y="667.297"/>
    </contour>
  </outline>
</glyph>
<glyph name="greater.case" format="2">
  <advance width="573"/>
  <outline>
    <contour>
      <point x="50" y="86" type="line"/>
      <point x="509" y="319" type="line"/>
      <point x="509" y="367" type="line"/>
      <point x="50" y="590" type="line"/>
      <point x="50" y="570" type="line"/>
      <point x="461" y="343" type="line"/>
      <point x="50" y="106" type="line"/>
    </contour>
  </outline>
</glyph>
<glyph name="k.ss11" format="2">
  <advance width="582"/>
  <anchor x="286" y="-20" name="bottom"/>
  <anchor x="139" y="750" name="top"/>
  <outline>
    <contour>
      <point x="54" y="0" type="line" name="av01"/>
      <point x="219" y="0" type="line"/>
      <point x="219" y="700" type="line" name="av02"/>
      <point x="54" y="700" type="line"/>
    </contour>
    <contour>
      <point x="111" y="240" type="line"/>
      <point x="298" y="240" type="line" name="iv01"/>
      <point x="390" y="0" type="line" name="ab02"/>
      <point x="575" y="0" type="line"/>
      <point x="437" y="283" type="line"/>
      <point x="562" y="500" type="line" name="av02"/>
      <point x="399" y="500" type="line"/>
      <point x="317" y="360" type="line" name="iv02"/>
      <point x="110" y="360" type="line"/>
    </contour>
  </outline>
</glyph>
<glyph name="micro.ss01" format="2">
  <advance width="610"/>
  <anchor x="300" y="520" name="topgr"/>
  <outline>
    <contour>
      <point x="50" y="-200" type="line"/>
      <point x="215" y="-200" type="line"/>
      <point x="215" y="500" type="line"/>
      <point x="50" y="500" type="line"/>
    </contour>
    <contour>
      <point x="395" y="213" type="line"/>
      <point x="379" y="283" type="line"/>
      <point x="379" y="156.619"/>
      <point x="349.088" y="100"/>
      <point x="283.075" y="100" type="curve" smooth="yes"/>
      <point x="232.535" y="100"/>
      <point x="215" y="132.161"/>
      <point x="215" y="225.628" type="curve" smooth="yes"/>
      <point x="215" y="500" type="line"/>
      <point x="50" y="500" type="line"/>
      <point x="50" y="196" type="line" smooth="yes"/>
      <point x="50" y="53"/>
      <point x="111.612" y="-20"/>
      <point x="219.93" y="-20" type="curve" smooth="yes"/>
      <point x="310.361" y="-20"/>
      <point x="367.637" y="30"/>
      <point x="397" y="130" type="curve"/>
    </contour>
    <contour>
      <point x="600" y="120" type="line"/>
      <point x="563" y="120"/>
      <point x="544" y="135.079"/>
      <point x="544" y="197.407" type="curve" smooth="yes"/>
      <point x="544" y="500" type="line"/>
      <point x="379" y="500" type="line"/>
      <point x="379" y="153" type="line" smooth="yes"/>
      <point x="379" y="47"/>
      <point x="433" y="0"/>
      <point x="552" y="0" type="curve" smooth="yes"/>
      <point x="600" y="0" type="line"/>
    </contour>
  </outline>
</glyph>
<glyph name="s.ss12" format="2">
  <advance width="490"/>
  <anchor x="235" y="520" name="top"/>
  <anchor x="255" y="-20" name="bottom"/>
  <outline>
    <contour>
      <point x="21" y="86" type="line"/>
      <point x="75.522" y="18.072"/>
      <point x="157" y="-20"/>
      <point x="242" y="-20" type="curve" smooth="yes"/>
      <point x="383" y="-20"/>
      <point x="465" y="46"/>
      <point x="465" y="160.301" type="curve" smooth="yes"/>
      <point x="465" y="266.933"/>
      <point x="367.495" y="288.721"/>
      <point x="287.769" y="306.536" type="curve" smooth="yes"/>
      <point x="232.633" y="318.856"/>
      <point x="186" y="329.276"/>
      <point x="186" y="364.544" type="curve" smooth="yes"/>
      <point x="186" y="386.647"/>
      <point x="205" y="400"/>
      <point x="247" y="400" type="curve" smooth="yes"/>
      <point x="303" y="400"/>
      <point x="363" y="376.387"/>
      <point x="436" y="323" type="curve"/>
      <point x="445" y="425" type="line"/>
      <point x="397" y="486"/>
      <point x="324" y="520"/>
      <point x="233" y="520" type="curve" smooth="yes"/>
      <point x="105" y="520"/>
      <point x="21" y="453"/>
      <point x="21" y="340.579" type="curve" smooth="yes"/>
      <point x="21" y="236.996"/>
      <point x="118.574" y="213.297"/>
      <point x="198.315" y="193.929" type="curve" smooth="yes"/>
      <point x="253.414" y="180.546"/>
      <point x="300" y="169.231"/>
      <point x="300" y="135.059" type="curve" smooth="yes"/>
      <point x="300" y="114"/>
      <point x="284" y="100"/>
      <point x="240" y="100" type="curve" smooth="yes"/>
      <point x="171" y="100"/>
      <point x="87" y="134"/>
      <point x="30" y="188" type="curve"/>
    </contour>
  </outline>
</glyph>
<glyph name="scedilla.ss09" format="2">
  <advance width="490"/>
  <anchor x="235" y="520" name="top"/>
  <anchor x="235" y="-218" name="bottom"/>
  <outline>
    <contour>
      <point x="22" y="149" type="line"/>
      <point x="35" y="39.355"/>
      <point x="128" y="-21"/>
      <point x="254" y="-21" type="curve" smooth="yes"/>
      <point x="386" y="-21"/>
      <point x="466" y="44.388"/>
      <point x="466" y="152.378" type="curve" smooth="yes"/>
      <point x="466" y="242.535"/>
      <point x="409.789" y="299.769"/>
      <point x="292.331" y="312" type="curve" smooth="yes"/>
      <point x="265.744" y="314.769"/>
      <point x="182" y="321.304"/>
      <point x="182" y="365.374" type="curve" smooth="yes"/>
      <point x="182" y="385.31"/>
      <point x="200.931" y="400"/>
      <point x="234.586" y="400" type="curve" smooth="yes"/>
      <point x="272.448" y="400"/>
      <point x="295.586" y="381.633"/>
      <point x="304" y="350" type="curve"/>
      <point x="466" y="350" type="line"/>
      <point x="453" y="459.645"/>
      <point x="370" y="520"/>
      <point x="244" y="520" type="curve" smooth="yes"/>
      <point x="110" y="520"/>
      <point x="22" y="453.207"/>
      <point x="22" y="347.535" type="curve" smooth="yes"/>
      <point x="22" y="257.813"/>
      <point x="85.718" y="197.442"/>
      <point x="203.922" y="185" type="curve" smooth="yes"/>
      <point x="228.228" y="182.441"/>
      <point x="306" y="175.847"/>
      <point x="306" y="133.837" type="curve" smooth="yes"/>
      <point x="306" y="112.32"/>
      <point x="286.521" y="99"/>
      <point x="253.714" y="99" type="curve" smooth="yes"/>
      <point x="217.832" y="99"/>
      <point x="186.05" y="115.313"/>
      <point x="184" y="149" type="curve"/>
    </contour>
    <contour>
      <point x="108" y="-205" type="line"/>
      <point x="130" y="-211"/>
      <point x="163" y="-218"/>
      <point x="210" y="-218" type="curve" smooth="yes"/>
      <point x="307" y="-218"/>
      <point x="359" y="-192"/>
      <point x="359" y="-133" type="curve" smooth="yes"/>
      <point x="359" y="-87"/>
      <point x="328" y="-64"/>
      <point x="258" y="-64" type="curve"/>
      <point x="305.224" y="19" type="line"/>
      <point x="212.224" y="19" type="line"/>
      <point x="147" y="-104" type="line"/>
      <point x="162" y="-102"/>
      <point x="180" y="-100"/>
      <point x="194" y="-100" type="curve" smooth="yes"/>
      <point x="227" y="-100"/>
      <point x="246" y="-111"/>
      <point x="246" y="-134" type="curve" smooth="yes"/>
      <point x="246" y="-155"/>
      <point x="230" y="-168"/>
      <point x="201" y="-168" type="curve" smooth="yes"/>
      <point x="183" y="-168"/>
      <point x="148" y="-163"/>
      <point x="128" y="-157" type="curve"/>
    </contour>
  </outline>
</glyph>
<glyph name="sterling.osf" format="2">
  <advance width="634"/>
  <outline>
    <contour>
      <point x="21" y="289" type="line"/>
      <point x="144.22" y="289" type="line"/>
      <point x="154.63" y="265.27"/>
      <point x="162" y="239.84"/>
      <point x="162" y="210" type="curve" smooth="yes"/>
      <point x="162" y="130"/>
      <point x="110" y="86"/>
      <point x="50" y="46" type="curve"/>
      <point x="50" y="-44" type="line"/>
      <point x="109" y="32"/>
      <point x="144" y="50"/>
      <point x="182" y="50" type="curve" smooth="yes"/>
      <point x="261" y="50"/>
      <point x="294" y="-26"/>
      <point x="408" y="-26" type="curve" smooth="yes"/>
      <point x="504" y="-26"/>
      <point x="585" y="27"/>
      <point x="614" y="112" type="curve"/>
      <point x="594" y="144" type="line"/>
      <point x="582" y="119"/>
      <point x="529" y="82"/>
      <point x="459" y="82" type="curve" smooth="yes"/>
      <point x="367" y="82"/>
      <point x="383" y="145"/>
      <point x="295" y="147" type="curve"/>
      <point x="310" y="170"/>
      <point x="328" y="199"/>
      <point x="328" y="241" type="curve" smooth="yes"/>
      <point x="328" y="258"/>
      <point x="325.06" y="273.88"/>
      <point x="320.14" y="289" type="curve"/>
      <point x="495" y="289" type="line"/>
      <point x="495" y="369" type="line"/>
      <point x="277.87" y="369" type="line"/>
      <point x="250.45" y="410.89"/>
      <point x="222" y="451.75"/>
      <point x="222" y="502" type="curve" smooth="yes"/>
      <point x="222" y="565"/>
      <point x="266" y="589"/>
      <point x="320" y="589" type="curve" smooth="yes"/>
      <point x="378" y="589"/>
      <point x="439" y="561"/>
      <point x="488" y="504" type="curve"/>
      <point x="583" y="599" type="line"/>
      <point x="514" y="684"/>
      <point x="418" y="720"/>
      <point x="317" y="720" type="curve" smooth="yes"/>
      <point x="163" y="720"/>
      <point x="57" y="637"/>
      <point x="57" y="518" type="curve" smooth="yes"/>
      <point x="57" y="468.91"/>
      <point x="75.44" y="420.59"/>
      <point x="102.22" y="369" type="curve"/>
      <point x="21" y="369" type="line"/>
    </contour>
  </outline>
</glyph>
<glyph name="zecyr.loclBGR.ss09" format="2">
  <advance width="515"/>
  <outline>
    <contour>
      <point x="22" y="-35" type="line"/>
      <point x="33" y="-152"/>
      <point x="116" y="-222"/>
      <point x="261" y="-222" type="curve" smooth="yes"/>
      <point x="404.603" y="-222"/>
      <point x="492" y="-136.113"/>
      <point x="492" y="-15.617" type="curve" smooth="yes"/>
      <point x="492" y="96.367"/>
      <point x="406.201" y="174.619"/>
      <point x="283" y="175" type="curve"/>
      <point x="395.67" y="185"/>
      <point x="463.5" y="254.498"/>
      <point x="463.5" y="351.388" type="curve" smooth="yes"/>
      <point x="463.5" y="458.343"/>
      <point x="386.583" y="520"/>
      <point x="258.215" y="520" type="curve" smooth="yes"/>
      <point x="125.327" y="520"/>
      <point x="40.325" y="455.108"/>
      <point x="22" y="333" type="curve"/>
      <point x="181" y="333" type="line"/>
      <point x="187.026" y="368.928"/>
      <point x="207.111" y="400"/>
      <point x="250.295" y="400" type="curve" smooth="yes"/>
      <point x="276.406" y="400"/>
      <point x="301.5" y="380.317"/>
      <point x="301.5" y="332.75" type="curve" smooth="yes"/>
      <point x="301.5" y="262.219"/>
      <point x="261.363" y="221.092"/>
      <point x="171" y="221.092" type="curve"/>
      <point x="171" y="105.092" type="line"/>
      <point x="278.084" y="116.364"/>
      <point x="327" y="71.52"/>
      <point x="327" y="-0.648" type="curve" smooth="yes"/>
      <point x="327" y="-64.526"/>
      <point x="306.941" y="-91.95"/>
      <point x="252.202" y="-91.95" type="curve" smooth="yes" name="sv01"/>
      <point x="207.036" y="-91.95"/>
      <point x="186.207" y="-71.55"/>
      <point x="181" y="-35" type="curve"/>
    </contour>
  </outline>
</glyph>
<glyph name="zecyr.ss10" format="2">
  <advance width="481"/>
  <anchor x="270" y="-20" name="bottom"/>
  <anchor x="250" y="520" name="top"/>
  <outline>
    <contour>
      <point x="25" y="70" type="line"/>
      <point x="65" y="15"/>
      <point x="145" y="-20"/>
      <point x="231" y="-20" type="curve" smooth="yes"/>
      <point x="371" y="-20"/>
      <point x="458" y="43"/>
      <point x="458" y="133" type="curve" smooth="yes"/>
      <point x="458" y="225"/>
      <point x="411" y="250"/>
      <point x="253" y="260" type="curve"/>
      <point x="387" y="274"/>
      <point x="440" y="310"/>
      <point x="440" y="386" type="curve" smooth="yes"/>
      <point x="440" y="478"/>
      <point x="353" y="520"/>
      <point x="231" y="520" type="curve" smooth="yes"/>
      <point x="145" y="520"/>
      <point x="65" y="485"/>
      <point x="25" y="430" type="curve"/>
      <point x="62" y="301" type="line"/>
      <point x="112" y="377.768"/>
      <point x="159" y="396"/>
      <point x="216" y="396" type="curve" smooth="yes"/>
      <point x="249" y="396"/>
      <point x="278" y="383.584"/>
      <point x="278" y="360.663" type="curve" smooth="yes"/>
      <point x="278" y="332.011"/>
      <point x="255" y="311"/>
      <point x="150" y="311" type="curve"/>
      <point x="150" y="205" type="line"/>
      <point x="249" y="205"/>
      <point x="293" y="192.495"/>
      <point x="293" y="148.248" type="curve" smooth="yes"/>
      <point x="293" y="117.467"/>
      <point x="262" y="104"/>
      <point x="217" y="104" type="curve" smooth="yes"/>
      <point x="159" y="104"/>
      <point x="112" y="122.232"/>
      <point x="62" y="199" type="curve"/>
    </contour>
  </outline>
</glyph>
<glyph name="zhecyr.loclBGR.ss11" format="2">
  <advance width="891"/>
  <anchor x="446" y="-20" name="bottom"/>
  <anchor x="446" y="750" name="top"/>
  <outline>
    <contour>
      <point x="472" y="360" type="line"/>
      <point x="265" y="360" type="line" name="iv02"/>
      <point x="183" y="500" type="line"/>
      <point x="20" y="500" type="line" name="av02"/>
      <point x="145" y="283" type="line"/>
      <point x="7" y="0" type="line"/>
      <point x="192" y="0" type="line" name="ab02"/>
      <point x="284" y="240" type="line" name="iv01"/>
      <point x="471" y="240" type="line"/>
    </contour>
    <contour>
      <point x="363" y="0" type="line" name="av01"/>
      <point x="528" y="0" type="line"/>
      <point x="528" y="700" type="line" name="av02"/>
      <point x="363" y="700" type="line"/>
    </contour>
    <contour>
      <point x="420" y="240" type="line"/>
      <point x="607" y="240" type="line" name="iv01"/>
      <point x="699" y="0" type="line" name="ab02"/>
      <point x="884" y="0" type="line"/>
      <point x="746" y="283" type="line"/>
      <point x="871" y="500" type="line" name="av02"/>
      <point x="708" y="500" type="line"/>
      <point x="626" y="360" type="line" name="iv02"/>
      <point x="419" y="360" type="line"/>
    </contour>
  </outline>
</glyph>
